{
    "asset" : {
        "generator" : "Khronos glTF Blender I/O v3.4.50",
        "version" : "2.0"
    },
    "scene" : 0,
    "scenes" : [
        {
            "name" : "Scene",
            "nodes" : [
                0
            ]
        }
    ],
    "nodes" : [
        {
            "mesh" : 0,
            "name" : "Torus.001"
        }
    ],
    "materials" : [
        {
            "doubleSided" : true,
            "name" : "Yellow",
            "pbrMetallicRoughness" : {
                "baseColorFactor" : [
                    0.7522242665290833,
                    0.8000000715255737,
                    0,
                    1
                ],
                "metallicFactor" : 0,
                "roughnessFactor" : 0.5
            }
        }
    ],
    "meshes" : [
        {
            "name" : "Torus.001",
            "primitives" : [
                {
                    "attributes" : {
                        "POSITION" : 0,
                        "TEXCOORD_0" : 1,
                        "NORMAL" : 2
                    },
                    "indices" : 3,
                    "material" : 0
                }
            ]
        }
    ],
    "accessors" : [
        {
            "bufferView" : 0,
            "componentType" : 5126,
            "count" : 1182,
            "max" : [
                1.1599699258804321,
                0.23883549869060516,
                4.297513484954834
            ],
            "min" : [
                -1.1599700450897217,
                -0.23883549869060516,
                -1.1594512462615967
            ],
            "type" : "VEC3"
        },
        {
            "bufferView" : 1,
            "componentType" : 5126,
            "count" : 1182,
            "type" : "VEC2"
        },
        {
            "bufferView" : 2,
            "componentType" : 5126,
            "count" : 1182,
            "type" : "VEC3"
        },
        {
            "bufferView" : 3,
            "componentType" : 5123,
            "count" : 5748,
            "type" : "SCALAR"
        }
    ],
    "bufferViews" : [
        {
            "buffer" : 0,
            "byteLength" : 14184,
            "byteOffset" : 0,
            "target" : 34962
        },
        {
            "buffer" : 0,
            "byteLength" : 9456,
            "byteOffset" : 14184,
            "target" : 34962
        },
        {
            "buffer" : 0,
            "byteLength" : 14184,
            "byteOffset" : 23640,
            "target" : 34962
        },
        {
            "buffer" : 0,
            "byteLength" : 11496,
            "byteOffset" : 37824,
            "target" : 34963
        }
    ],
    "buffers" : [
        {
            "byteLength" : 49320,
            "uri" : "data:application/octet-stream;base64,"
        }
    ]
}
